<?xml version="1.0" encoding="utf-8"?><svg xmlns="http://www.w3.org/2000/svg" xmlns:xlink="http://www.w3.org/1999/xlink" version="1.1" class="page" pageAlignment="none" x="0px" y="0px" width="842px" height="595px" viewBox="0 0 842 595" enable-background="new 0 0 842 595" xml:space="preserve"><defs/><style type="text/css"/><style type="text/css"/><g type="LAYER" name="workspace" id="workspace" locked="true"/><g type="LAYER" name="Layer 01" id="Layer 01"><g transform="matrix(1 0 0 1 92.1842105263164 49.34609250398759)"><path width="252.06249999999997" height="477.175" stroke-miterlimit="3" stroke="none" fill="#470D0D" d="M360.731,229.075 L135.631,3.9749999999999943 C130.331,-1.3250000000000055 121.831,-1.3250000000000055 116.531,3.9749999999999943 C111.23100000000001,9.274999999999995 111.23100000000001,17.774999999999995 116.531,23.074999999999996 L332.031,238.575 L116.531,454.075 C111.23100000000001,459.375 111.23100000000001,467.875 116.531,473.175 C119.131,475.77500000000003 122.631,477.175 126.031,477.175 C129.431,477.175 132.931,475.875 135.531,473.175 L360.631,248.07500000000002 C365.931,242.875 365.931,234.275 360.731,229.075 Z "/></g><g transform="matrix(1 0 0 1 205.11084529505587 297.0255183413078)"/><g transform="matrix(1 0 0 1 205.11084529505587 297.0255183413078)"/><g transform="matrix(1 0 0 1 205.11084529505587 297.0255183413078)"/><g transform="matrix(1 0 0 1 205.11084529505587 297.0255183413078)"/><g transform="matrix(1 0 0 1 205.11084529505587 297.0255183413078)"/><g transform="matrix(1 0 0 1 205.11084529505587 297.0255183413078)"/><g transform="matrix(1 0 0 1 205.11084529505587 297.0255183413078)"/><g transform="matrix(1 0 0 1 205.11084529505587 297.0255183413078)"/><g transform="matrix(1 0 0 1 205.11084529505587 297.0255183413078)"/><g transform="matrix(1 0 0 1 205.11084529505587 297.0255183413078)"/><g transform="matrix(1 0 0 1 205.11084529505587 297.0255183413078)"/><g transform="matrix(1 0 0 1 205.11084529505587 297.0255183413078)"/><g transform="matrix(1 0 0 1 205.11084529505587 297.0255183413078)"/><g transform="matrix(1 0 0 1 205.11084529505587 297.0255183413078)"/><g transform="matrix(1 0 0 1 205.11084529505587 297.0255183413078)"/></g><g type="LAYER" name="GROUP" id="GROUP"><path transform="matrix(1 0 0 1 197.5191387559821 44.60127591706575)" width="252.06249999999997" height="477.175" stroke-miterlimit="3" stroke="none" fill="#F75D7F" d="M360.731,229.075 L135.631,3.9749999999999943 C130.331,-1.3250000000000055 121.831,-1.3250000000000055 116.531,3.9749999999999943 C111.23100000000001,9.274999999999995 111.23100000000001,17.774999999999995 116.531,23.074999999999996 L332.031,238.575 L116.531,454.075 C111.23100000000001,459.375 111.23100000000001,467.875 116.531,473.175 C119.131,475.77500000000003 122.631,477.175 126.031,477.175 C129.431,477.175 132.931,475.875 135.531,473.175 L360.631,248.07500000000002 C365.931,242.875 365.931,234.275 360.731,229.075 Z "/></g></svg>