<svg xmlns="http://www.w3.org/2000/svg" xmlns:xlink="http://www.w3.org/1999/xlink" viewBox="1510.052 2890.368 111.542 75.217"><defs><style>.a{fill:#fff;stroke:#95989a;opacity:0.5;}.b{fill:#2a98ff;}.c{fill:snow;}.d{stroke:none;}.e{fill:none;}.f{filter:url(#a);}</style><filter id="a" x="1510.052" y="2890.368" width="111.542" height="75.217" filterUnits="userSpaceOnUse"><feOffset dy="8" input="SourceAlpha"/><feGaussianBlur stdDeviation="10" result="b"/><feFlood flood-color="#1c7fff" flood-opacity="0.502"/><feComposite operator="in" in2="b"/><feComposite in="SourceGraphic"/></filter></defs><g transform="translate(1256 2708)"><g class="f" transform="matrix(1, 0, 0, 1, -1256, -2708)"><g class="a" transform="translate(1540.05 2912.37)"><rect class="d" width="51.542" height="15.217"/><rect class="e" x="0.5" y="0.5" width="50.542" height="14.217"/></g></g><rect class="b" width="56.942" height="35.671" rx="5" transform="translate(280.898 183.915)"/><g transform="translate(288.602 195.365)"><g transform="translate(0 0)"><path class="c" d="M188.879,2.739H192L190.048,14.2h-3.121Z" transform="translate(-173.355 -2.629)"/><path class="c" d="M274.231,9.737a8.065,8.065,0,0,0-2.8-.481c-3.085,0-5.259,1.554-5.277,3.781-.017,1.646,1.552,2.564,2.736,3.112,1.215.562,1.624.92,1.618,1.421-.008.768-.971,1.119-1.868,1.119a6.546,6.546,0,0,1-2.939-.6l-.4-.182-.438,2.565a9.886,9.886,0,0,0,3.478.611c3.282,0,5.413-1.536,5.437-3.914.012-1.3-.82-2.3-2.622-3.113-1.091-.53-1.76-.884-1.753-1.42,0-.476.566-.985,1.788-.985a5.761,5.761,0,0,1,2.337.439l.28.132.423-2.483" transform="translate(-246.197 -9.256)"/><path class="c" d="M393.121,12.146h-2.413a1.554,1.554,0,0,0-1.635.95l-4.638,10.5h3.279s.536-1.412.657-1.722l4,0c.093.4.38,1.717.38,1.717h2.9l-2.527-11.449m-3.85,7.384c.258-.66,1.244-3.2,1.244-3.2-.018.03.256-.663.414-1.093l.211.988s.6,2.735.723,3.308H389.27Z" transform="translate(-357.08 -11.936)"/><g transform="translate(0 0.2)"><path class="c" d="M52.568,2.854l-3.057,7.812-.326-1.588A8.941,8.941,0,0,0,44.86,4.273l2.8,10.019,3.3,0L55.875,2.854H52.568" transform="translate(-41.599 -2.847)"/><path class="c" d="M5.075,2.757H.04L0,3c3.917.948,6.509,3.24,7.585,5.993L6.49,3.724a1.307,1.307,0,0,0-1.415-.967" transform="translate(0 -2.757)"/></g><path class="c" d="M49.809,31.017a.692.692,0,0,0-.379-.518l.92.414" transform="translate(-46.426 -28.955)"/></g></g></g></svg>