<svg xmlns="http://www.w3.org/2000/svg" viewBox="2849.19 3597 82.161 90"><defs><style>.a{fill:#fff;}</style></defs><g transform="translate(622.711 -1928.22)"><path class="a" d="M69.2,4.4H13.068A13.143,13.143,0,0,0,0,17.468V76.332A13.143,13.143,0,0,0,13.068,89.4H69.091A13.143,13.143,0,0,0,82.159,76.332V17.468A12.973,12.973,0,0,0,69.2,4.4ZM3.409,30.2V17.468a9.651,9.651,0,0,1,9.659-9.659H69.091a9.651,9.651,0,0,1,9.659,9.659V30.2h.114v46.25A9.651,9.651,0,0,1,69.2,86.1H13.068a9.651,9.651,0,0,1-9.659-9.659V32.354L3.3,30.877" transform="translate(2226.479 5525.82)"/><path class="a" d="M23.009,18.523V1.7a1.7,1.7,0,1,0-3.409,0V18.523a1.748,1.748,0,0,0,1.7,1.7A1.674,1.674,0,0,0,23.009,18.523Z" transform="translate(2229.152 5525.22)"/><path class="a" d="M53.209,18.523V1.7a1.7,1.7,0,0,0-3.409,0V18.523a1.748,1.748,0,0,0,1.7,1.7A1.674,1.674,0,0,0,53.209,18.523Z" transform="translate(2233.27 5525.22)"/><rect class="a" width="76.818" height="3.523" transform="translate(2229.206 5549.06)"/></g></svg>