<svg xmlns="http://www.w3.org/2000/svg" viewBox="3468.908 2911.27 138.416 311.39"><defs><style>.a,.f{fill:none;}.a,.b,.c,.d,.e,.f,.g,.h,.i,.j{stroke:#f65579;}.a,.j{stroke-linecap:round;stroke-linejoin:round;}.a{stroke-width:1.5px;}.b,.c,.d,.e,.i{fill:#f65579;}.b,.c,.d,.e,.f,.g,.h,.i,.j{stroke-width:0.75px;}.b{opacity:0.304;}.c{opacity:0.298;}.d{opacity:0.3;}.e{opacity:0.301;}.g{fill:rgba(0,0,0,0);}.h,.j{fill:#551449;}</style></defs><g transform="translate(3350 2709)"><g transform="translate(119.283 203.02)"><path class="a" d="M309.89,60.81c0-19.214-10.205-39.7-15.906-44.552-.845-.7-1.056-3.238-2.182-3.871A157.523,157.523,0,0,0,270.336,2.252C265.62.7,258.371,0,242.394,0s-21.466.141-23.3.563c-1.76.422-2.886.985-10.346,1.126s-97.2.422-107.262.422C82.769,2.111,89.666.985,82.628.985H43.5c-5.631,0-11.12,4.364-11.12,4.364-15.273,2.534-24.493,7.46-28.5,22.1C.985,38.076,0,49.408,0,60.81,0,72.141.985,83.473,3.871,94.171c4.012,14.639,13.232,19.636,28.5,22.1,0,0,5.49,4.364,11.12,4.364H82.628c7.038,0,.141-1.126,18.862-1.126,10.065,0,99.8.282,107.262.422s8.516.7,10.346,1.126c1.76.422,7.32.563,23.3.563s23.3-.7,27.942-2.252c3.519-1.126,14.428-6.123,21.466-10.135,1.126-.633,1.408-3.167,2.182-3.871C299.685,100.5,309.89,79.953,309.89,60.81Z" transform="translate(8.024 309.89) rotate(-90)"/><path class="b" d="M2.729,46.384a259.009,259.009,0,0,0-2.6-35.332C-.227,8.87.125,8.73,1.674,8.237,7.586,6.337,23.21,2.254,31.867.354A12.709,12.709,0,0,1,37.5.284a14.757,14.757,0,0,1,5.138,2.393c10.205,7.883,12.528,26.182,12.528,43.707S52.841,82.278,42.636,90.091A13.592,13.592,0,0,1,37.5,92.484a11.751,11.751,0,0,1-5.631-.07c-8.586-1.9-24.211-5.982-30.194-7.883C.125,84.038-.227,83.9.125,81.715A270.74,270.74,0,0,0,2.729,46.384Z" transform="translate(22.45 140.888) rotate(-90)"/><path class="c" d="M2.463,9.431c13.724.563,28.293,1.056,43.214,1.408A101.931,101.931,0,0,1,41.314,0h-.352C25.126.211,9.009,1.337,4.927,2.6A38.346,38.346,0,0,0,.07,4.5H0L1.9,9.361A3.187,3.187,0,0,0,2.463,9.431Z" transform="translate(107.965 227.614) rotate(-90)"/><path class="d" d="M9.29,11.191h1.056c15.132.282,30.264.422,45.255.493H58.98L56.165,8.657C48.634,6.686,40.892,4.716,38.5,4.082c-3.238-.774-5.912-1.337-7.6-1.689C22.593.915,12.739.141,0,0A67.075,67.075,0,0,0,9.29,11.191Z" transform="translate(107.965 177.925) rotate(-90)"/><path class="d" d="M2.463,1.408C16.188.845,30.757.352,45.678,0a101.931,101.931,0,0,0-4.364,10.839h-.352C25.126,10.628,9.009,9.5,4.927,8.235A38.353,38.353,0,0,1,.07,6.334H0L1.9,1.478A3.191,3.191,0,0,1,2.463,1.408Z" transform="translate(18.792 228.665) rotate(-90)"/><path class="d" d="M9.29.493h1.056C25.478.211,40.61.07,55.6,0H58.98L56.165,3.026C48.634,5,40.892,6.968,38.5,7.6c-3.238.774-5.912,1.337-7.6,1.689-8.3,1.478-18.158,2.252-30.9,2.393A64.347,64.347,0,0,1,9.29.493Z" transform="translate(18.018 178.976) rotate(-90)"/><path class="e" d="M2.041,36.245v6.9c0,1.126-1.126,1.619-1.971,1.76.422,15.906,2.886,27.378,7.108,33.29.211.282,1.408,1.548,7.32.845,3.308-.422,8.8-1.971,17.877-4.575,2.815-.845,4.012-1.408,3.589-5a281.133,281.133,0,0,1-2.111-29.842,273.019,273.019,0,0,1,1.9-28.223c.563-4.856-.633-5.7-3.449-6.616C23.226,2.181,17.736.562,14.428.21c-5.842-.7-7.109.563-7.32.845C2.886,6.967.422,18.509,0,34.486.915,34.627,2.041,35.119,2.041,36.245Z" transform="translate(29.069 274.347) rotate(-90)"/><path class="f" d="M3.452,10.323A28.889,28.889,0,0,0,1.622.68C1.2-.3-.067-.3,0,1.243c.07,2.111.282,5.138.282,9.079S.073,17.29,0,19.4c-.07,1.548,1.267,1.548,1.619.563A29.27,29.27,0,0,0,3.452,10.323Z" transform="translate(58.51 3.663) rotate(-90)"/><path class="f" d="M.006.761C.076.058,2.75-.224,5.918.2s5.7,1.337,5.63,2.041S8.8,3.225,5.636,2.8C2.4,2.38-.135,1.465.006.761Z" transform="translate(122.617 271.538) rotate(-90)"/><path class="g" d="M20.2,0A9.622,9.622,0,0,0,16.61,4.645,148.248,148.248,0,0,1,.7,36.106,2.883,2.883,0,0,0,.07,38.428c.141.493.633.774,1.548.774a10.6,10.6,0,0,0,3.871-.985" transform="translate(79.038 23.578) rotate(-90)"/><path class="g" d="M20.2,39.2a9.621,9.621,0,0,1-3.589-4.645A148.246,148.246,0,0,0,.7,3.1,2.883,2.883,0,0,1,.07.774C.211.282.7,0,1.618,0A10.6,10.6,0,0,1,5.49.985" transform="translate(19.425 23.578) rotate(-90)"/><path class="f" d="M0,0C1.76,2.252,3.378,4.223,6.757,4.364,21.4,5,61.232,4.364,73.689,2.041" transform="translate(115.496 97.197) rotate(-90)"/><path class="f" d="M0,3.1C16.892,2.463,48.493,2.111,66.863,0" transform="translate(116.693 90.44) rotate(-90)"/><path class="f" d="M0,4.6C1.76,2.343,3.378.372,6.757.231,21.4-.4,61.232.231,73.689,2.554" transform="translate(17.575 97.197) rotate(-90)"/><path class="f" d="M0,0C16.892.633,48.493.985,66.863,3.1" transform="translate(17.807 90.44) rotate(-90)"/><path class="h" d="M.1,1.629c3.519,23.3,9.079,29.349,17.243,31.742,2.6.774-.211-1.689-3.308-3.1C7.838,27.459,4.248,17.535,1.5,3.248,1.152,1.066-.4-1.89.1,1.629Z" transform="translate(86.488 303.863) rotate(-90)"/><path class="h" d="M.1,31.889C3.615,8.593,9.175,2.54,17.339.147c2.6-.774-.211,1.689-3.308,3.1C7.838,6.059,4.248,15.983,1.5,30.271,1.152,32.523-.4,35.408.1,31.889Z" transform="translate(17.589 303.863) rotate(-90)"/><path class="f" d="M36.387,0C26.041.352,15.414.7,12.6,1.2c-2.815.422-7.32,2.745-9.431,9.29S0,24.985,0,40.469v-.211C0,55.742,1.056,63.7,3.167,70.241s6.616,8.868,9.431,9.29,13.443.774,23.789,1.2" transform="translate(28.505 306.019) rotate(-90)"/><path class="f" d="M12.317,0C7.46,4.927,0,14.5,0,48,0,81.432,7.46,91,12.317,96" transform="translate(20.833 302.148) rotate(-90)"/><path class="f" d="M.211,1.2c17.314.07,42.018.422,56.094.774,14.217.352,27.73,1.337,37.091,3.167a7.84,7.84,0,0,1,.141-1.2h0C84.176,2.111,70.522,1.126,56.305.774,42.159.422,17.314.07,0,0,.07.422.141.845.211,1.2Z" transform="translate(100.083 235.286) rotate(-90)"/><path class="f" d="M.211,3.941c17.314-.07,42.018-.422,56.094-.774C70.522,2.815,84.036,1.83,93.4,0a7.84,7.84,0,0,0,.141,1.2h0c-9.361,1.83-23.015,2.815-37.232,3.167-14.147.352-38.991.7-56.305.774C.07,4.645.141,4.223.211,3.941Z" transform="translate(32.446 235.286) rotate(-90)"/><path class="f" d="M78.194,7.6C66.44,5.49,24.141,3.589,9.22,4.153,7.179,2.6,4.716,2.323,1.337,1.478A1.5,1.5,0,0,1,0,0" transform="translate(119.93 286.523) rotate(-90)"/><path class="f" d="M78.194,0C66.44,2.111,24.141,4.012,9.22,3.449,7.179,5,4.716,5.279,1.337,6.123A1.5,1.5,0,0,0,0,7.6" transform="translate(10.135 286.523) rotate(-90)"/><path class="f" d="M.258,0c.774.985,1.408,1.2.985,2.534S-.376,6.053.117,7.109c.422,1.056,4.082,3.026,7.39,3.519" transform="translate(118.03 234.628) rotate(-90)"/><path class="f" d="M11.683,20.622c-1.971-1.76-3.238-4.927-3.871-7.6A99.12,99.12,0,0,1,0,0" transform="translate(106.98 182.57) rotate(-90)"/><path class="f" d="M.258,10.628c.774-.985,1.408-1.2.985-2.534S-.376,4.575.117,3.519C.539,2.463,4.2.493,7.507,0" transform="translate(9.009 234.628) rotate(-90)"/><path class="f" d="M11.683,0C9.713,1.76,8.446,4.927,7.812,7.6A99.122,99.122,0,0,0,0,20.622" transform="translate(10.065 182.57) rotate(-90)"/><path class="h" d="M0,.422C0,1.478,16.4,1.548,16.4.563V.141L0,0Z" transform="translate(126.053 166.593) rotate(-90)"/><path class="h" d="M0,.422C0,1.478,16.4,1.83,16.4.845V.422L0,0Z" transform="translate(124.716 226.488) rotate(-90)"/><path class="h" d="M0,.838C0-.218,16.4-.288,16.4.7v.422L0,1.26Z" transform="translate(10.353 166.593) rotate(-90)"/><path class="h" d="M0,1C0-.052,16.4-.4,16.4.581V1L0,1.426Z" transform="translate(11.524 226.488) rotate(-90)"/><path class="f" d="M194.746,3.589C130.136,3.8,73.69,3.026,0,0" transform="translate(121.69 276.459) rotate(-90)"/><path class="f" d="M194.746.033C130.136-.179,73.69.6,0,3.622" transform="translate(12.355 276.459) rotate(-90)"/><path class="f" d="M5,10.839l12.739.282A66.586,66.586,0,0,1,8.446,0H0A101.936,101.936,0,0,0,4.364,10.839Z" transform="translate(108.036 186.37) rotate(-90)"/><path class="f" d="M.018,4.5c.845.07,6.545.281,8.235.352L6.352,0A52.843,52.843,0,0,0,1.284,2.815c-.7.422-1.2.915-1.2,1.337v.07C-.053,4.364.018,4.434.018,4.5Z" transform="translate(112.54 233.825) rotate(-90)"/><path class="f" d="M14.78,4.012C11.683,3.167,4.153,1.056,0,0L2.815,3.026,3.8,4.082" transform="translate(116.622 121.69) rotate(-90)"/><line class="f" x2="1.689" y2="4.293" transform="translate(113.033 228.459) rotate(-90)"/><path class="f" d="M4.5,10.839A108.12,108.12,0,0,1,0,0" transform="translate(108.036 185.244) rotate(-90)"/><path class="f" d="M0,0A64.842,64.842,0,0,0,9.079,11.05" transform="translate(108.036 179.192) rotate(-90)"/><path class="f" d="M5,.282,17.736,0a66.588,66.588,0,0,0-9.29,11.12H0A101.938,101.938,0,0,1,4.364.282Z" transform="translate(18.51 186.37) rotate(-90)"/><path class="f" d="M.018.352C.862.282,6.563.07,8.252,0l-1.9,4.856A52.853,52.853,0,0,1,1.284,2.041C.581,1.619.088,1.126.088.7V.633C-.053.493.018.422.018.352Z" transform="translate(20.27 233.825) rotate(-90)"/><path class="f" d="M14.78.07C11.683.915,4.153,3.026,0,4.082L2.815,1.056,3.8,0" transform="translate(16.962 121.69) rotate(-90)"/><line class="f" y1="4.364" x2="1.689" transform="translate(20.27 228.459) rotate(-90)"/><path class="f" d="M4.5,0A108.121,108.121,0,0,0,0,10.839" transform="translate(18.792 185.244) rotate(-90)"/><path class="f" d="M0,11.05A64.842,64.842,0,0,1,9.079,0" transform="translate(18.581 179.192) rotate(-90)"/><path class="i" d="M0,5.138c0,1.83,0,3.519.07,5.279.845-.141,1.971-.633,1.971-1.76V1.76C2.041.633.915.141.07,0,0,1.689,0,3.378,0,5.138Z" transform="translate(63.695 274.347) rotate(-90)"/><path class="j" d="M1.056,16.469a7.23,7.23,0,0,0,5.419-2.675,29.067,29.067,0,0,0,3.871-6.757,7.241,7.241,0,0,0-.07-4.927C9.5.493,7.461.07,6.264,0A4.983,4.983,0,0,0,5.208.07C3.449,4.786,1.337,11.613,0,16.4.352,16.4.7,16.469,1.056,16.469Z" transform="translate(121.197 122.464) rotate(-90)"/><path class="j" d="M1.056,0A7.23,7.23,0,0,1,6.475,2.675a29.067,29.067,0,0,1,3.871,6.757,7.241,7.241,0,0,1-.07,4.927C9.5,15.977,7.461,16.4,6.264,16.469a4.983,4.983,0,0,1-1.056-.07C3.449,11.683,1.337,4.856,0,.07A5.327,5.327,0,0,1,1.056,0Z" transform="translate(0 122.464) rotate(-90)"/><path class="f" d="M5.309.683c-.352.845-1.267,2.956-1.267,2.956C3.268,2.02,1.227,1.6.031,1.528-.04.894-.04.331.594.12S5.661-.091,5.309.683Z" transform="translate(119.669 116.16) rotate(-90)"/><path class="h" d="M1.346,16.329C2.683,11.543,4.865,4.716,6.554,0A2.185,2.185,0,0,0,4.3,1.619c-1.2,3.238-3.238,9.5-4.293,13.443C-.062,15.7.29,16.117,1.346,16.329Z" transform="translate(121.267 123.74) rotate(-90)"/><path class="f" d="M5.309,2.956C4.957,2.111,4.042,0,4.042,0,3.268,1.619,1.227,2.041.031,2.111c-.07.633-.07,1.2.563,1.408S5.661,3.73,5.309,2.956Z" transform="translate(14.358 116.16) rotate(-90)"/><path class="h" d="M1.346,0C2.683,4.786,4.865,11.613,6.554,16.329A2.185,2.185,0,0,1,4.3,14.71c-1.2-3.238-3.238-9.5-4.293-13.443C-.062.633.29.141,1.346,0Z" transform="translate(0.07 123.74) rotate(-90)"/><path class="f" d="M2.729,46.384a259.009,259.009,0,0,0-2.6-35.332C-.227,8.87.125,8.73,1.674,8.237,7.586,6.337,23.21,2.254,31.867.354A12.709,12.709,0,0,1,37.5.284a14.757,14.757,0,0,1,5.138,2.393c10.205,7.883,12.528,26.182,12.528,43.707S52.841,82.278,42.636,90.091A13.592,13.592,0,0,1,37.5,92.484a11.751,11.751,0,0,1-5.631-.07c-8.586-1.9-24.211-5.982-30.194-7.883C.125,84.038-.227,83.9.125,81.715A270.74,270.74,0,0,0,2.729,46.384Z" transform="translate(22.45 140.888) rotate(-90)"/><path class="f" d="M2.463,9.431c13.724.563,28.293,1.056,43.214,1.408A101.931,101.931,0,0,1,41.314,0h-.352C25.126.211,9.009,1.337,4.927,2.6A38.346,38.346,0,0,0,.07,4.5H0L1.9,9.361A3.187,3.187,0,0,0,2.463,9.431Z" transform="translate(107.965 227.614) rotate(-90)"/><path class="f" d="M9.29,11.191h1.056c15.132.282,30.264.422,45.255.493H58.98L56.165,8.657C48.634,6.686,40.892,4.716,38.5,4.082c-3.238-.774-5.912-1.337-7.6-1.689C22.593.915,12.739.141,0,0A67.075,67.075,0,0,0,9.29,11.191Z" transform="translate(107.965 177.924) rotate(-90)"/><path class="f" d="M2.463,1.408C16.188.845,30.757.352,45.678,0a101.931,101.931,0,0,0-4.364,10.839h-.352C25.126,10.628,9.009,9.5,4.927,8.235A38.353,38.353,0,0,1,.07,6.334H0L1.9,1.478A3.191,3.191,0,0,1,2.463,1.408Z" transform="translate(18.792 228.665) rotate(-90)"/><path class="f" d="M9.29.493h1.056C25.478.211,40.61.07,55.6,0H58.98L56.165,3.026C48.634,5,40.892,6.968,38.5,7.6c-3.238.774-5.912,1.337-7.6,1.689-8.3,1.478-18.158,2.252-30.9,2.393A64.347,64.347,0,0,1,9.29.493Z" transform="translate(18.018 178.975) rotate(-90)"/><path class="f" d="M2.041,36.245v6.9c0,1.126-1.126,1.619-1.971,1.76.422,15.906,2.886,27.378,7.108,33.29.211.282,1.408,1.548,7.32.845,3.308-.422,8.8-1.971,17.877-4.575,2.815-.845,4.012-1.408,3.589-5a281.133,281.133,0,0,1-2.111-29.842,273.019,273.019,0,0,1,1.9-28.223c.563-4.856-.633-5.7-3.449-6.616C23.226,2.181,17.736.562,14.428.21c-5.842-.7-7.109.563-7.32.845C2.886,6.967.422,18.509,0,34.486.915,34.627,2.041,35.119,2.041,36.245Z" transform="translate(29.069 274.347) rotate(-90)"/><path class="h" d="M.7,27.8A91.046,91.046,0,0,0,8.938,16.188l3.8-6.123A93.084,93.084,0,0,0,17.6.563L16.892,0C11.683,9.29,5.349,19.566,0,27.238Z" transform="translate(86.429 106.276) rotate(-90)"/><path class="h" d="M15.977,4.012A15.717,15.717,0,0,1,15.2,8.938c-.141.563-2.956,10.276-4.293,14.5a9.845,9.845,0,0,1-1.126,1.83C6.827,29.138,3.941,32.8,3.941,32.8l-1.267.845S1.83,35.12,1.267,35.895A.947.947,0,0,1,0,36.247l2.745-4.364L3.8,31.39l4.716-7.109a8,8,0,0,0,.845-1.76c.211-.774,4.786-19.144,4.786-19.144V1.408c0-1.2.422-1.408.915-1.408s.915.07.915.774A24.711,24.711,0,0,1,15.977,4.012Z" transform="translate(65.807 96.986) rotate(-90)"/><path class="h" d="M4.152,40.047A133.61,133.61,0,0,0,3.66,21.889l-.633-8.235A120.139,120.139,0,0,0,.845,0H0C1.548,12.458,2.956,29.208,3.308,40.047Z" transform="translate(45.396 92.411) rotate(-90)"/><path class="h" d="M2.48,3.8a22.693,22.693,0,0,1,.774,5.7c0,1.478.211,22.029.211,22.029L2.972,33.22s.211,1.9.282,3.026a1.136,1.136,0,0,1-.774,1.267l-.422-5.842.7-1.548L.72,4.082S.509,3.238.157,1.971.087.282.58.141c.493-.211.845-.282,1.126.493C1.776,1.2,2.128,2.464,2.48,3.8Z" transform="translate(29.208 91.161) rotate(-90)"/></g></g></svg>