<svg xmlns="http://www.w3.org/2000/svg" viewBox="-1412 3274 64 64"><defs><style>.a{fill:#fff;}.b,.c{fill:none;}.c{stroke:#fff;stroke-width:2px;}.d{stroke:none;}</style></defs><g transform="translate(-1683 2708)"><g transform="translate(278.5 573.828)"><path class="a" d="M32.961,7a.94.94,0,0,1-.465-.121A23.145,23.145,0,0,0,21.229,4.023,23.142,23.142,0,0,0,9.962,6.875a1.014,1.014,0,1,1-.971-1.78,25.737,25.737,0,0,1,24.435-.02A1.024,1.024,0,0,1,32.961,7ZM4.015,17.616a1.054,1.054,0,0,1-.587-.182,1.009,1.009,0,0,1-.243-1.416A20.913,20.913,0,0,1,10.771,9.4a23.35,23.35,0,0,1,20.855-.02,20.993,20.993,0,0,1,7.585,6.574,1.016,1.016,0,1,1-1.659,1.173A18.99,18.99,0,0,0,30.7,11.183a21.315,21.315,0,0,0-19.014.02A19.189,19.189,0,0,0,4.8,17.191a.882.882,0,0,1-.789.425ZM16.657,42.031a.949.949,0,0,1-.708-.3,20.449,20.449,0,0,1-4.066-5.34,17.956,17.956,0,0,1-2.124-8.779c0-6.008,5.138-10.9,11.449-10.9s11.449,4.9,11.449,10.9a1.011,1.011,0,1,1-2.023,0,9.176,9.176,0,0,0-9.426-8.88,9.176,9.176,0,0,0-9.426,8.88A15.847,15.847,0,0,0,13.663,35.4a19.147,19.147,0,0,0,3.742,4.9,1.039,1.039,0,0,1,0,1.436,1.109,1.109,0,0,1-.748.3Zm14.5-3.742a10.893,10.893,0,0,1-6.271-1.8,10.77,10.77,0,0,1-4.814-8.88,1.011,1.011,0,1,1,2.023,0,8.7,8.7,0,0,0,3.924,7.2,8.869,8.869,0,0,0,5.138,1.436,13.368,13.368,0,0,0,2.1-.2,1.016,1.016,0,0,1,.344,2,13.814,13.814,0,0,1-2.448.243Zm-4.066,4.167a1.183,1.183,0,0,1-.263-.04,15.783,15.783,0,0,1-7.525-4.248,14.76,14.76,0,0,1-4.389-10.559,6.1,6.1,0,0,1,6.23-5.947,6.1,6.1,0,0,1,6.23,5.947,4.218,4.218,0,0,0,8.415,0c0-7.626-6.574-13.816-14.665-13.816A14.767,14.767,0,0,0,7.757,21.945a13.013,13.013,0,0,0-1.193,5.664,20.1,20.1,0,0,0,1.355,7.3.987.987,0,0,1-.587,1.295,1,1,0,0,1-1.295-.587,22.535,22.535,0,0,1-1.477-8.01,15.2,15.2,0,0,1,1.375-6.554,16.787,16.787,0,0,1,15.191-9.3c9.2,0,16.688,7.1,16.688,15.838a6.237,6.237,0,0,1-12.46,0,4.074,4.074,0,0,0-4.207-3.924,4.074,4.074,0,0,0-4.207,3.924,12.738,12.738,0,0,0,3.783,9.123,13.755,13.755,0,0,0,6.615,3.742,1,1,0,0,1,.708,1.234.987.987,0,0,1-.951.769Z" transform="translate(3.065 2.046)"/><path class="b" d="M0,0H48.547V48.547H0Z"/></g><g class="c" transform="translate(271 566)"><circle class="d" cx="32" cy="32" r="32"/><circle class="b" cx="32" cy="32" r="31"/></g></g></svg>