<svg xmlns="http://www.w3.org/2000/svg" viewBox="3657.617 2940.072 26.864 19.78"><defs><style>.a{fill:#722b5d;}</style></defs><g transform="translate(3657.617 2940.072)"><g transform="translate(0 0)"><path class="a" d="M26.436,18.033H24.342a.681.681,0,0,0-.681.682v1.527H22.49V18.134a.681.681,0,0,0-.682-.682H18.772V16a.682.682,0,0,0-.682-.682H14.958v-1.77h2.578a.682.682,0,0,0,0-1.363H8.279a.682.682,0,0,0,0,1.363h2.682v1.77H8.279A.682.682,0,0,0,7.6,16v1.457H5.121a.681.681,0,0,0-.682.682v4.311H2.781V18.138a.682.682,0,1,0-1.363,0V28.249a.682.682,0,1,0,1.363,0V23.807H4.44v4.442a.681.681,0,0,0,.682.682h6.369l2.278,2.781a.68.68,0,0,0,.527.25h7.512a.681.681,0,0,0,.682-.682V27.987H23.66v1.752a.682.682,0,0,0,.682.682h2.094a.68.68,0,0,0,.636-.438c2.7-7.045.057-11.442-.057-11.626A.68.68,0,0,0,26.436,18.033ZM12.324,13.544H13.6v1.77H12.324v-1.77ZM25.961,29.057h-.938V27.305a.681.681,0,0,0-.682-.682H21.808a.681.681,0,0,0-.682.682V30.6H14.618L12.34,27.817a.681.681,0,0,0-.527-.25H5.8V18.815H8.279a.681.681,0,0,0,.682-.681V16.677h8.45v1.457a.681.681,0,0,0,.681.681h3.036v2.108a.681.681,0,0,0,.681.682h1.852v2.385a.682.682,0,1,0,1.363,0V19.4h1C26.512,20.434,27.789,23.917,25.961,29.057Z" transform="translate(-1.418 -12.181)"/></g></g></svg>