<svg xmlns="http://www.w3.org/2000/svg" viewBox="-145.677 2984.229 21.645 21.646"><defs><style>.a,.b{fill:#9b2c5f;}.b{fill-rule:evenodd;}</style></defs><g transform="translate(-145.677 2984.229)"><g transform="translate(0 0)"><path class="a" d="M8.671,291.378a6.223,6.223,0,1,0,6.223,6.223,6.232,6.232,0,0,0-6.223-6.223Zm0,1.082A5.141,5.141,0,1,1,3.53,297.6,5.133,5.133,0,0,1,8.671,292.46Z" transform="translate(2.152 -286.777)"/><path class="b" d="M5.773,293.529a2.207,2.207,0,0,0-1.847,1.429l-.541,1.083.968.484.541-1.082c.324-.648.662-.831.879-.831s.553.183.877.831l.541,1.082.968-.484-.541-1.083A2.2,2.2,0,0,0,5.773,293.529Z" transform="translate(5.05 -280.128)"/><path class="b" d="M7.751,292.728c-.4.059-.8.122-1.2.182a2.2,2.2,0,0,0-1.928,1.315,2.2,2.2,0,0,0,.786,2.2l.862.85.761-.772-.865-.85c-.516-.508-.583-.883-.516-1.091s.343-.471,1.059-.579l1.2-.18Z" transform="translate(8.65 -282.604)"/><path class="b" d="M4.417,291.549q-.1.6-.2,1.195a2.2,2.2,0,0,0,.655,2.241,2.2,2.2,0,0,0,2.332-.069l1.076-.558-.5-.96-1.076.558c-.643.334-1.02.282-1.2.154s-.343-.474-.224-1.188q.1-.6.2-1.194Z" transform="translate(7.465 -286.247)"/><path class="b" d="M6.629,291.549l-1.07.178.2,1.194c.119.715-.045,1.06-.222,1.188s-.556.18-1.2-.154L3.262,293.4l-.5.96,1.074.558a2.2,2.2,0,0,0,2.334.069,2.2,2.2,0,0,0,.653-2.241Z" transform="translate(3.135 -286.247)"/><path class="b" d="M2.726,292.728,2.566,293.8l1.2.18c.716.108.994.372,1.061.579s0,.582-.518,1.091l-.862.85.759.772.862-.85a2.2,2.2,0,0,0,.788-2.2,2.207,2.207,0,0,0-1.93-1.315Z" transform="translate(2.518 -282.604)"/><path class="a" d="M5.5,292.4a2.029,2.029,0,1,0,2.029,2.029A2.038,2.038,0,0,0,5.5,292.4Zm0,1.082a.947.947,0,1,1-.947.947A.939.939,0,0,1,5.5,293.485Z" transform="translate(5.321 -283.608)"/><path class="a" d="M12.03,290.254a10.823,10.823,0,1,0,10.7,8.57.541.541,0,1,0-1.057.224,9.741,9.741,0,1,1-6.454-7.215.541.541,0,1,0,.342-1.025,10.8,10.8,0,0,0-3.532-.554Z" transform="translate(-1.323 -290.253)"/><path class="a" d="M9.677,293.7a.541.541,0,0,0-.467.294,7.62,7.62,0,0,1-4.386,3.68.541.541,0,1,0,.334,1.03,8.706,8.706,0,0,0,5.008-4.2.541.541,0,0,0-.488-.8Z" transform="translate(8.338 -279.607)"/><path class="a" d="M7.3,290.87a.542.542,0,0,0-.142.028,8.715,8.715,0,0,0-5.01,4.2.541.541,0,1,0,.955.505,7.64,7.64,0,0,1,4.386-3.68.541.541,0,0,0-.19-1.057Z" transform="translate(0.992 -288.346)"/></g></g></svg>