<svg xmlns="http://www.w3.org/2000/svg" viewBox="3658.866 3055.826 22.073 22.073"><defs><style>.a{fill:#722b5d;}</style></defs><g transform="translate(3619 2709)"><g transform="translate(39.867 346.826)"><path class="a" d="M16.005,4.969A11.037,11.037,0,1,0,27.042,16.005,11.053,11.053,0,0,0,16.005,4.969ZM15.27,6.478V7.672a.735.735,0,1,0,1.471,0V6.478a9.513,9.513,0,0,1,5.484,2.267l-.85.842a.737.737,0,0,0,1.042,1.042l.842-.842a9.506,9.506,0,0,1,2.275,5.484H24.338a.736.736,0,1,0,0,1.471h1.195a9.529,9.529,0,0,1-3.4,6.6v-1.7a.735.735,0,0,0-.735-.735H10.613a.7.7,0,0,0-.735.735v1.7a9.529,9.529,0,0,1-3.4-6.6H7.672a.735.735,0,1,0,0-1.471H6.478A9.506,9.506,0,0,1,8.752,9.786l.842.842a.737.737,0,0,0,1.042-1.042l-.85-.842A9.513,9.513,0,0,1,15.27,6.478Zm.689,2.42a.735.735,0,0,0-.666.559l-1.21,5.07a2.413,2.413,0,0,0,1.723,3.906h.008a.735.735,0,0,0,.184.023h.015l.046-.008h.015a.735.735,0,0,0,.146-.023,2.407,2.407,0,0,0,1.708-3.9l-1.21-5.07A.735.735,0,0,0,15.959,8.9Zm.046,3.914.513,2.167a.735.735,0,0,0,.191.337.986.986,0,0,1,.146,1.179,1.01,1.01,0,0,1-.842.49H16a1.01,1.01,0,0,1-.842-.49.986.986,0,0,1,.146-1.179.735.735,0,0,0,.191-.337Zm-4.657,9.566h9.313v1.976a9.618,9.618,0,0,1-9.313,0Z" transform="translate(-4.969 -4.969)"/></g></g></svg>