<svg xmlns="http://www.w3.org/2000/svg" viewBox="2559.772 2756.733 22.808 26.086"><defs><style>.a{fill:#fff;}</style></defs><g transform="translate(2275 2160)"><path class="a" d="M19.029,25.994.346,15.207a.693.693,0,0,1-.253-.945L.645,13.3a1.709,1.709,0,0,1,1.027-.724,15.289,15.289,0,0,0,9.188-6.2c4.013-6.135,7.1-4,8.786-3.032s5.075,2.583,1.767,9.125a15.288,15.288,0,0,0-.772,11.055,1.709,1.709,0,0,1-.113,1.251l-.553.958a.693.693,0,0,1-.6.346A.686.686,0,0,1,19.029,25.994Zm-11-1.595L7.23,23.94c-1.094-.632-1.248-2.431-.616-3.524l4.772,2.755a3.053,3.053,0,0,1-2.463,1.457A1.778,1.778,0,0,1,8.025,24.4ZM20.743,2.392l-.221-.126-.187-.108-.187-.108-.219-.128a8.818,8.818,0,0,0-1.665-.767l.27-.468a1.382,1.382,0,0,1,1.882-.5L22,1.1a1.381,1.381,0,0,1,.5,1.882l-.27.468A8.815,8.815,0,0,0,20.743,2.392Z" transform="translate(284.773 596.734)"/></g></svg>