<svg xmlns="http://www.w3.org/2000/svg" viewBox="3657.83 3114.499 24.026 20.024"><defs><style>.a{fill:#722b5d;fill-rule:evenodd;}</style></defs><g transform="translate(3619 2709)"><g transform="translate(38.83 405.499)"><path class="a" d="M2.789,9.55,9.724,2.873A5.733,5.733,0,0,1,13.1,1.511h9.823v17H4.785A1.412,1.412,0,0,1,3.56,17.6L2.015,12.529A3.315,3.315,0,0,1,2.789,9.55ZM.57,12.969l1.544,5.075a2.914,2.914,0,0,0,2.671,1.98H23.678a.756.756,0,0,0,.756-.756V.756A.756.756,0,0,0,23.678,0H13.1A7.206,7.206,0,0,0,8.675,1.784L1.741,8.462A4.807,4.807,0,0,0,.57,12.969Z" transform="translate(-0.409)"/><path class="a" d="M18.443,8.511h7.178v5.667H11.714l5.922-5.358A1.549,1.549,0,0,1,18.443,8.511ZM16.622,7.7,9.246,14.374a.756.756,0,0,0,.507,1.316H26.377a.756.756,0,0,0,.756-.756V7.756A.756.756,0,0,0,26.377,7H18.443a3.008,3.008,0,0,0-1.821.7Z" transform="translate(-5.752 -4.355)"/><path class="a" d="M50.025,33H47.759a.756.756,0,0,0,0,1.511h2.265a.756.756,0,0,0,0-1.511Z" transform="translate(-29.4 -32.532)"/></g></g></svg>