<svg xmlns="http://www.w3.org/2000/svg" viewBox="3658.937 3171.701 22.185 22.185"><defs><style>.a,.b{fill:#722b5d;}.b{fill-rule:evenodd;}</style></defs><g transform="translate(3681.121 3171.701) rotate(90)"><path class="a" d="M6.378,0a6.378,6.378,0,1,0,6.378,6.378A6.387,6.387,0,0,0,6.378,0Zm0,1.109A5.269,5.269,0,1,1,1.109,6.378,5.261,5.261,0,0,1,6.378,1.109Z" transform="translate(4.714 4.714)"/><path class="b" d="M2.446,0A2.26,2.26,0,0,0,.555,1.465L0,2.574l.992.5.555-1.109c.332-.664.676-.851.9-.851s.569.188.9.851L3.9,3.07l.992-.5L4.34,1.465A2.262,2.262,0,0,0,2.446,0Z" transform="translate(8.646 13.733)"/><path class="b" d="M3.281,0c-.41.061-.818.125-1.226.186A2.262,2.262,0,0,0,.077,1.534,2.259,2.259,0,0,0,.885,3.785l.884.871.778-.791-.884-.871c-.529-.521-.6-.906-.531-1.118s.354-.483,1.088-.594L3.446,1.1Z" transform="translate(13.529 10.375)"/><path class="b" d="M.255,0C.188.408.122.816.054,1.224a2.259,2.259,0,0,0,.669,2.3A2.261,2.261,0,0,0,3.115,3.45l1.1-.572L3.7,1.894l-1.1.572c-.659.342-1.048.289-1.228.158s-.349-.486-.228-1.218q.1-.612.2-1.224Z" transform="translate(11.922 5.433)"/><path class="b" d="M3.961,0,2.866.182l.2,1.224c.122.732-.049,1.086-.23,1.218s-.567.184-1.226-.158l-1.1-.572L0,2.878l1.1.572a2.255,2.255,0,0,0,2.39.071,2.26,2.26,0,0,0,.672-2.3Z" transform="translate(6.046 5.433)"/><path class="b" d="M.165,0,0,1.1l1.228.184c.734.111,1.016.381,1.085.594s0,.6-.529,1.118L.9,3.865l.78.791.884-.871a2.257,2.257,0,0,0,.806-2.251A2.258,2.258,0,0,0,1.393.186Z" transform="translate(5.21 10.375)"/><path class="a" d="M2.08,0A2.08,2.08,0,1,0,4.16,2.08,2.088,2.088,0,0,0,2.08,0Zm0,1.109a.971.971,0,1,1-.971.971.962.962,0,0,1,.971-.971Z" transform="translate(9.012 9.012)"/><path class="a" d="M10.126.043A11.092,11.092,0,1,0,22.142,10.126,11.1,11.1,0,0,0,10.126.043Zm.1,1.105A9.982,9.982,0,1,1,1.148,11.961,9.972,9.972,0,0,1,10.224,1.148Z"/><path class="a" d="M5.377,0A.554.554,0,0,0,4.9.3,7.817,7.817,0,0,1,3.02,2.626,7.812,7.812,0,0,1,.4,4.073a.555.555,0,1,0,.34,1.055A8.929,8.929,0,0,0,3.733,3.475,8.922,8.922,0,0,0,5.88.821.555.555,0,0,0,5.377,0Z" transform="translate(13.086 14.439)"/><path class="a" d="M5.359,0a.556.556,0,0,0-.147.029A8.936,8.936,0,0,0,.079,4.339a.555.555,0,1,0,.979.518,7.831,7.831,0,0,1,4.5-3.772A.555.555,0,0,0,5.359,0Z" transform="translate(3.142 2.586)"/></g></svg>