<svg xmlns="http://www.w3.org/2000/svg" viewBox="801.168 3206.398 49.87 54.238"><defs><style>.a{fill:#f65579;}</style></defs><g transform="translate(801.168 3206.398)"><path class="a" d="M42.005,4.4H7.932A7.978,7.978,0,0,0,0,12.332V47.671A7.978,7.978,0,0,0,7.932,55.6h34a7.978,7.978,0,0,0,7.932-7.932V12.332A7.874,7.874,0,0,0,42.005,4.4ZM2.069,20.057V12.332A5.858,5.858,0,0,1,7.932,6.469h34A5.858,5.858,0,0,1,47.8,12.332v7.725h.069V47.74A5.858,5.858,0,0,1,42.005,53.6H7.932A5.858,5.858,0,0,1,2.069,47.74V21.368L2,20.471" transform="translate(0 -1.365)"/><path class="a" d="M21.669,11.243V1.035a1.035,1.035,0,1,0-2.069,0V11.243a1.061,1.061,0,0,0,1.035,1.035A1.016,1.016,0,0,0,21.669,11.243Z" transform="translate(-6.081)"/><path class="a" d="M51.869,11.243V1.035a1.035,1.035,0,0,0-2.069,0V11.243a1.061,1.061,0,0,0,1.035,1.035A1.016,1.016,0,0,0,51.869,11.243Z" transform="translate(-15.451)"/><rect class="a" width="46.627" height="2.138" transform="translate(1.655 14.47)"/></g></svg>