<svg xmlns="http://www.w3.org/2000/svg" viewBox="-151.012 3303.139 26.601 29.027"><defs><style>.a{fill:#a78297;}.b{fill:#fff;}</style></defs><g transform="translate(-207 2698)"><g transform="translate(44.588 599.185)"><g transform="translate(11.4 11.4)"><path class="a" d="M22.519,11.4l-8.736.214a2.218,2.218,0,0,0-2.169,2.169L11.4,22.519a2.261,2.261,0,0,0,.641,1.619l9.5,9.5a4.56,4.56,0,0,0,3.207,1.344,4.507,4.507,0,0,0,3.207-1.344l5.651-5.651a4.5,4.5,0,0,0,0-6.415l-9.469-9.53A2.261,2.261,0,0,0,22.519,11.4ZM32.538,24.779a2.128,2.128,0,0,1-.611,1.5h0l-5.651,5.651a2.076,2.076,0,0,1-1.5.611,2.128,2.128,0,0,1-1.5-.611l-9.439-9.439.183-8.461,8.431-.183L31.9,23.282A2.035,2.035,0,0,1,32.538,24.779Z" transform="translate(-11.4 -11.4)"/><path class="a" d="M27.269,27.3a3.687,3.687,0,0,0,0,5.193,3.678,3.678,0,0,0,2.6,1.069,3.731,3.731,0,0,0,2.6-1.069,3.669,3.669,0,0,0,0-5.193A3.725,3.725,0,0,0,27.269,27.3Zm3.482,3.482a1.274,1.274,0,0,1-1.741,0,1.206,1.206,0,0,1-.367-.855,1.109,1.109,0,0,1,.367-.855,1.206,1.206,0,0,1,.855-.367,1.156,1.156,0,0,1,.855.367,1.206,1.206,0,0,1,.367.855A1.313,1.313,0,0,1,30.751,30.786Z" transform="translate(-21.679 -21.714)"/></g></g><g transform="translate(48.192 605.139)"><ellipse class="a" cx="8" cy="8" rx="8" ry="8" transform="translate(18.397 0)"/><path class="b" d="M3.345,7.806V5.576H1.115a1.115,1.115,0,1,1,0-2.23h2.23V1.115a1.115,1.115,0,1,1,2.23,0v2.23h2.23a1.115,1.115,0,0,1,0,2.23H5.576v2.23a1.115,1.115,0,1,1-2.23,0Z" transform="translate(21.9 3.486)"/></g></g></svg>