<svg xmlns="http://www.w3.org/2000/svg" viewBox="-145.059 2950 20.044 19.926"><defs><style>.a{fill:#9b2c5f;}</style></defs><g transform="translate(-145.059 2950)"><path class="a" d="M24.9.183A.779.779,0,0,0,23.784.36L17.315,8.946,13.963,5.535a.818.818,0,0,0-1.117,0,.894.894,0,0,0,0,1.176l4,4.058a.718.718,0,0,0,.529.235h.059a.817.817,0,0,0,.588-.294L25.078,1.3A.772.772,0,0,0,24.9.183Z" transform="translate(-5.201 -0.017)"/><path class="a" d="M17.642,17.778a1.614,1.614,0,0,1-1.47,1.764,1.6,1.6,0,0,1-1.411-1.176,2,2,0,0,1-.059-.588v-.294a1.456,1.456,0,0,0-1.47-1.47H5.293V3.37a.278.278,0,0,1,.294-.294h10c.353-.353.706-.765,1.059-1.176H5.587a1.456,1.456,0,0,0-1.47,1.47V16.014H1.47A1.456,1.456,0,0,0,0,17.484v.294a2.912,2.912,0,0,0,2.94,2.94H16.172a2.785,2.785,0,0,0,2.646-2.94V5.487l-1.176,1.47Zm-16.466,0v-.294a.278.278,0,0,1,.294-.294H13.232a.278.278,0,0,1,.294.294v.294a5.147,5.147,0,0,0,.118.941,3.593,3.593,0,0,0,.412.823H2.94A1.769,1.769,0,0,1,1.176,17.778Z" transform="translate(0 -0.792)"/></g></svg>