<svg xmlns="http://www.w3.org/2000/svg" viewBox="2846.901 3154.75 12.434 30.362"><defs><style>.a{fill:#722b5d;}</style></defs><g transform="translate(2800 2709)"><g transform="translate(-3)"><path class="a" d="M14.944,10.868l.03.041c.036.053.074.1.112.159L19.4,17.026a.689.689,0,0,0,1.105,0l4.3-5.952c.041-.056.081-.11.121-.159l.026-.038h0a5.575,5.575,0,0,0-1.1-7.435,6.135,6.135,0,0,0-7.808,0,5.575,5.575,0,0,0-1.1,7.435ZM19.95,5.384A2.435,2.435,0,0,1,22.432,7.77a2.483,2.483,0,0,1-4.963,0A2.435,2.435,0,0,1,19.95,5.384Z" transform="translate(35.907 443.71)"/></g><ellipse class="a" cx="3.717" cy="3.717" rx="3.717" ry="3.717" transform="translate(51.901 468.678)"/></g></svg>