<svg xmlns="http://www.w3.org/2000/svg" viewBox="-144.147 3019.114 20.111 24.042"><defs><style>.a{fill:#9b2c5f;}</style></defs><g transform="translate(-144.147 3019.114)"><path class="a" d="M5.735,19.217A2.434,2.434,0,0,0,3.853,22.1a2.459,2.459,0,0,0,2.368,1.943,2.657,2.657,0,0,0,.486-.061A2.434,2.434,0,0,0,8.588,21.1,2.4,2.4,0,0,0,5.735,19.217Zm.759,3.552a1.209,1.209,0,0,1-1.427-.941A1.2,1.2,0,0,1,6.008,20.4a.668.668,0,0,1,.243-.03,1.212,1.212,0,0,1,.243,2.4Zm10.564-4.827H9.772c-.516,0-.607-.152-.638-.395L7.465,9.5A2.929,2.929,0,0,0,4.46,7.1L4.187,5.83A3.078,3.078,0,0,0,5.553,4.707,2.877,2.877,0,0,0,5.978,2.43,3.081,3.081,0,0,0,2.4.062,3.01,3.01,0,0,0,.453,1.367,2.877,2.877,0,0,0,.028,3.644,3.1,3.1,0,0,0,2.972,6.073l.273,1.305a2.732,2.732,0,0,0-1.7,1.852,3.708,3.708,0,0,0-.061,1.518l1.67,8.014a.619.619,0,0,0,1.214-.243L2.7,10.535a2.569,2.569,0,0,1,.03-.971A1.6,1.6,0,0,1,4.1,8.38a1.749,1.749,0,0,1,2.155,1.4l1.67,7.893c0,.607.516,1.457,1.852,1.457h7.255a1.747,1.747,0,0,1,1.821,1.852,1.708,1.708,0,0,1-1.821,1.791H9.742a.607.607,0,1,0,0,1.214h7.286a2.9,2.9,0,0,0,3.036-3.005A2.9,2.9,0,0,0,17.058,17.942ZM3.367,4.828A1.847,1.847,0,0,1,1.212,3.4a1.8,1.8,0,0,1,.273-1.366,1.827,1.827,0,0,1,1.154-.789A1.478,1.478,0,0,1,3,1.216,1.847,1.847,0,0,1,4.794,2.673a1.8,1.8,0,0,1-.273,1.366A1.95,1.95,0,0,1,3.367,4.828Z" transform="translate(0.048 -0.002)"/></g></svg>