<svg xmlns="http://www.w3.org/2000/svg" viewBox="-149.012 3238.286 23.782 24.006"><defs><style>.a{fill:#a78297;}</style></defs><g transform="translate(-149.012 3238.286)"><g transform="translate(0 0.511)"><path class="a" d="M-218.965,33.648A12.26,12.26,0,0,1-231.113,21.6a.575.575,0,0,1,.575-.575.575.575,0,0,1,.575.575,11.1,11.1,0,0,0,11,10.9,10.5,10.5,0,0,0,10.484-10.73,10.526,10.526,0,0,0-8.678-10.477.575.575,0,0,1-.449-.678.574.574,0,0,1,.678-.449,11.652,11.652,0,0,1,9.6,11.6A11.633,11.633,0,0,1-218.965,33.648Z" transform="translate(231.113 -10.153)"/></g><g transform="translate(11.102 5.557)"><path class="a" d="M-191.919,34.854a.573.573,0,0,1-.406-.168.575.575,0,0,1,0-.813l6-6a.575.575,0,0,1,.813,0,.575.575,0,0,1,0,.813l-6,6A.573.573,0,0,1-191.919,34.854Z" transform="translate(192.494 -27.708)"/></g><g transform="translate(10.705)"><circle class="a" cx="0.898" cy="0.898" r="0.898" transform="translate(0 0)"/></g></g></svg>