<svg xmlns="http://www.w3.org/2000/svg" viewBox="0 0 96 82.5375" x="0px" y="0px"><title>4</title><g data-name="Layer 2"><g><path d="M1.5,3h93a1.5,1.5,0,0,0,0-3H1.5a1.5,1.5,0,0,0,0,3Z"/><path d="M94.5,31.52H1.5a1.5,1.5,0,0,0,0,3h93a1.5,1.5,0,1,0,0-3Z"/><path d="M48,63H1.5a1.5,1.5,0,0,0,0,3H48a1.5,1.5,0,0,0,0-3Z"/></g></g><text x="0" y="81.03" fill="#000000" font-size="5px" font-weight="bold" font-family="'Helvetica Neue', Helvetica, Arial-Unicode, Arial, Sans-serif"></text><text x="0" y="86.03" fill="#000000" font-size="5px" font-weight="bold" font-family="'Helvetica Neue', Helvetica, Arial-Unicode, Arial, Sans-serif"></text></svg>